<mxfile host="app.diagrams.net" modified="2023-04-16T19:35:04.016Z" agent="Mozilla/5.0 (Windows NT 10.0; Win64; x64; rv:109.0) Gecko/20100101 Firefox/112.0" etag="zVvbZHhaIQ6fpfw8hruq" version="21.1.8" type="github">
  <diagram name="Page-1" id="d39nPhqK_Dn-YKVsbKNB">
    <mxGraphModel dx="794" dy="502" grid="1" gridSize="10" guides="1" tooltips="1" connect="1" arrows="1" fold="1" page="1" pageScale="1" pageWidth="850" pageHeight="1100" math="0" shadow="0">
      <root>
        <mxCell id="0" />
        <mxCell id="1" parent="0" />
        <mxCell id="ykeIUnAhDxti8qUXnC6Z-3" style="edgeStyle=orthogonalEdgeStyle;rounded=0;orthogonalLoop=1;jettySize=auto;html=1;exitX=1;exitY=0.5;exitDx=0;exitDy=0;exitPerimeter=0;entryX=0;entryY=0.5;entryDx=0;entryDy=0;" parent="1" source="ykeIUnAhDxti8qUXnC6Z-1" target="ykeIUnAhDxti8qUXnC6Z-2" edge="1">
          <mxGeometry relative="1" as="geometry" />
        </mxCell>
        <mxCell id="ykeIUnAhDxti8qUXnC6Z-1" value="CG1PRD" style="shape=cylinder3;whiteSpace=wrap;html=1;boundedLbl=1;backgroundOutline=1;size=15;" parent="1" vertex="1">
          <mxGeometry x="50" y="140" width="120" height="120" as="geometry" />
        </mxCell>
        <mxCell id="ykeIUnAhDxti8qUXnC6Z-8" style="edgeStyle=orthogonalEdgeStyle;rounded=0;orthogonalLoop=1;jettySize=auto;html=1;" parent="1" source="ykeIUnAhDxti8qUXnC6Z-2" edge="1">
          <mxGeometry relative="1" as="geometry">
            <mxPoint x="390" y="200" as="targetPoint" />
          </mxGeometry>
        </mxCell>
        <mxCell id="ykeIUnAhDxti8qUXnC6Z-2" value="Oracle Golden Gate" style="shape=image;html=1;verticalAlign=top;verticalLabelPosition=bottom;labelBackgroundColor=#ffffff;imageAspect=0;aspect=fixed;image=https://cdn3.iconfinder.com/data/icons/travelling-icon-set/800/bridge-128.png" parent="1" vertex="1">
          <mxGeometry x="220" y="136" width="128" height="128" as="geometry" />
        </mxCell>
        <mxCell id="ykeIUnAhDxti8qUXnC6Z-5" value="ESMPRD" style="shape=cylinder3;whiteSpace=wrap;html=1;boundedLbl=1;backgroundOutline=1;size=15;" parent="1" vertex="1">
          <mxGeometry x="400" y="140" width="120" height="120" as="geometry" />
        </mxCell>
      </root>
    </mxGraphModel>
  </diagram>
</mxfile>
